<?xml version="1.0" encoding="UTF-8" standalone="no"?><svg xmlns="http://www.w3.org/2000/svg" xmlns:xlink="http://www.w3.org/1999/xlink" contentScriptType="application/ecmascript" contentStyleType="text/css" height="208px" preserveAspectRatio="none" style="width:440px;height:208px;" version="1.1" viewBox="0 0 440 208" width="440px" zoomAndPan="magnify"><defs><filter height="300%" id="fchkpq0mnvnti" width="300%" x="-1" y="-1"><feGaussianBlur result="blurOut" stdDeviation="2.0"/><feColorMatrix in="blurOut" result="blurOut2" type="matrix" values="0 0 0 0 0 0 0 0 0 0 0 0 0 0 0 0 0 0 .4 0"/><feOffset dx="4.0" dy="4.0" in="blurOut2" result="blurOut3"/><feBlend in="SourceGraphic" in2="blurOut3" mode="normal"/></filter></defs><g><rect fill="#DDDDDD" height="27.6094" rx="5" ry="5" style="stroke: #000000; stroke-width: 1.0;" width="421" x="8" y="8"/><text fill="#000000" font-family="sans-serif" font-size="14" lengthAdjust="spacingAndGlyphs" textLength="409" x="14" y="27.5332">♦ Composition relation  ♢ Aggregation relation  * Multiple relation</text><!--MD5=[bc580992a0121350dbeb037df29eb0ce]
cluster com.company.model--><polygon fill="#FFFFFF" filter="url(#fchkpq0mnvnti)" points="134,68.6094,282,68.6094,289,92.2188,292,92.2188,292,196.6094,134,196.6094,134,68.6094" style="stroke: #000000; stroke-width: 1.5;"/><line style="stroke: #000000; stroke-width: 1.5;" x1="134" x2="289" y1="92.2188" y2="92.2188"/><text fill="#000000" font-family="sans-serif" font-size="14" font-weight="bold" lengthAdjust="spacingAndGlyphs" textLength="142" x="138" y="85.1426">com.company.model</text><!--MD5=[5a3c8992cc3f79e986ba49daa6446893]
class BusinessObject--><rect fill="#FEFECE" filter="url(#fchkpq0mnvnti)" height="75.6719" id="BusinessObject" style="stroke: #A80036; stroke-width: 1.5;" width="124" x="151" y="104.6094"/><ellipse cx="167.8" cy="120.6094" fill="#ADD1B2" rx="11" ry="11" style="stroke: #A80036; stroke-width: 1.0;"/><path d="M170.5656,116.4844 Q170.7219,116.2656 170.9094,116.1563 Q171.0969,116.0469 171.3156,116.0469 Q171.6906,116.0469 171.925,116.3125 Q172.1594,116.5625 172.1594,117.1719 L172.1594,118.625 Q172.1594,119.2344 171.925,119.5 Q171.6906,119.7656 171.3156,119.7656 Q170.9719,119.7656 170.7688,119.5625 Q170.5656,119.375 170.4563,118.8594 Q170.4094,118.5 170.2219,118.3125 Q169.8938,117.9375 169.2844,117.7188 Q168.675,117.5 168.05,117.5 Q167.2844,117.5 166.6438,117.8281 Q166.0188,118.1563 165.5188,118.9063 Q165.0344,119.6563 165.0344,120.6875 L165.0344,121.7813 Q165.0344,123.0156 165.925,123.8438 Q166.8156,124.6563 168.4094,124.6563 Q169.3469,124.6563 170.0031,124.4063 Q170.3938,124.25 170.8156,123.8125 Q171.0813,123.5469 171.2219,123.4688 Q171.3781,123.3906 171.5813,123.3906 Q171.9094,123.3906 172.1594,123.6563 Q172.425,123.9063 172.425,124.25 Q172.425,124.5938 172.0813,125 Q171.5813,125.5781 170.7844,125.9063 Q169.7063,126.3594 168.4094,126.3594 Q166.8938,126.3594 165.6906,125.7344 Q164.7063,125.2344 164.0188,124.1719 Q163.3313,123.0938 163.3313,121.8125 L163.3313,120.6563 Q163.3313,119.3281 163.9406,118.1875 Q164.5656,117.0313 165.6594,116.4219 Q166.7531,115.7969 167.9875,115.7969 Q168.7219,115.7969 169.3625,115.9688 Q170.0188,116.125 170.5656,116.4844 Z "/><text fill="#000000" font-family="sans-serif" font-size="12" lengthAdjust="spacingAndGlyphs" textLength="88" x="182.2" y="125.5195">BusinessObject</text><line style="stroke: #A80036; stroke-width: 1.5;" x1="152" x2="274" y1="136.6094" y2="136.6094"/><ellipse cx="162" cy="147.6094" fill="none" rx="3" ry="3" style="stroke: #038048; stroke-width: 1.0;"/><text fill="#000000" font-family="sans-serif" font-size="11" lengthAdjust="spacingAndGlyphs" textLength="98" x="171" y="152.0283">persistenceId : Long</text><ellipse cx="162" cy="161.4453" fill="none" rx="3" ry="3" style="stroke: #038048; stroke-width: 1.0;"/><text fill="#000000" font-family="sans-serif" font-size="11" lengthAdjust="spacingAndGlyphs" textLength="81" x="171" y="165.8643">resource : String</text><line style="stroke: #A80036; stroke-width: 1.5;" x1="152" x2="274" y1="172.2813" y2="172.2813"/><!--MD5=[b43793e928de0678890c0d3fb87a8285]
@startuml

package com.company.model {

    class BusinessObject {
        +persistenceId : Long
        +resource : String
    }

}


legend top left
&#9830; Composition relation  &#9826; Aggregation relation  &#42; Multiple relation
endlegend

@enduml

PlantUML version 1.2019.11(Sun Sep 22 12:02:15 CEST 2019)
(EPL source distribution)
Java Runtime: Java(TM) SE Runtime Environment
JVM: Java HotSpot(TM) 64-Bit Server VM
Java Version: 11.0.9+7-LTS
Operating System: Windows 10
Default Encoding: UTF8
Language: en
Country: US
--></g></svg>